<svg width="68" height="59" viewBox="0 0 68 59" fill="none" xmlns="http://www.w3.org/2000/svg">
<rect width="68" height="59" fill="#581C87"/>
<path d="M6.07422 16.6853C5.70638 16.8481 5.34993 16.9669 5.00488 17.0417C4.65983 17.1166 4.28711 17.1541 3.88672 17.1541C2.79622 17.1541 1.93685 16.8497 1.30859 16.241C0.683594 15.629 0.371094 14.755 0.371094 13.6189C0.371094 12.5544 0.712891 11.6707 1.39648 10.9675C2.08008 10.2644 2.98177 9.91284 4.10156 9.91284C4.47591 9.91284 4.8112 9.94051 5.10742 9.99585C5.40365 10.0479 5.70964 10.1326 6.02539 10.2498L5.56152 11.5144C5.32064 11.4265 5.08952 11.363 4.86816 11.324C4.64681 11.2817 4.40755 11.2605 4.15039 11.2605C3.57422 11.2605 3.07454 11.4623 2.65137 11.866C2.23145 12.2696 2.02148 12.8165 2.02148 13.5066C2.02148 14.2195 2.2054 14.7778 2.57324 15.1814C2.94108 15.5818 3.44401 15.782 4.08203 15.782C4.25456 15.782 4.46777 15.7543 4.72168 15.699C4.97884 15.6436 5.24251 15.5541 5.5127 15.4304L6.07422 16.6853ZM12.7588 17.032H10.9912L10.0537 15.3035C9.90072 15.0235 9.74772 14.8119 9.59473 14.6687C9.44499 14.5255 9.27246 14.4441 9.07715 14.4246H8.64746V17.032H7.08008V10.03H9.5752C10.4215 10.03 11.0563 10.196 11.4795 10.5281C11.9059 10.8569 12.1191 11.3516 12.1191 12.0125C12.1191 12.4779 11.9824 12.88 11.709 13.2185C11.4355 13.5538 11.0612 13.8012 10.5859 13.9607V13.9802C10.7943 14.0453 10.988 14.182 11.167 14.3904C11.346 14.5955 11.499 14.8103 11.626 15.0349L12.7588 17.032ZM8.64746 11.2068V13.2429H9.33594C9.68099 13.2429 9.95605 13.1404 10.1611 12.9353C10.3662 12.727 10.4688 12.4714 10.4688 12.1687C10.4688 11.8464 10.3776 11.6056 10.1953 11.446C10.013 11.2865 9.73633 11.2068 9.36523 11.2068H8.64746ZM18.6914 10.03L16.4111 14.5417V17.032H14.8438V14.571L12.6221 10.03H14.4141L15.5469 12.6521C15.5566 12.6749 15.5745 12.7335 15.6006 12.8279C15.6299 12.9223 15.6657 13.0525 15.708 13.2185H15.7275C15.7471 13.1013 15.7699 12.9988 15.7959 12.9109C15.8219 12.8197 15.8496 12.7384 15.8789 12.6667L17.0312 10.03H18.6914ZM21.0791 14.7322V17.032H19.5117V10.03H21.9775C22.8564 10.03 23.5156 10.2205 23.9551 10.6013C24.3978 10.9822 24.6191 11.5551 24.6191 12.3201C24.6191 13.0395 24.3652 13.6222 23.8574 14.0681C23.3529 14.5108 22.679 14.7322 21.8359 14.7322H21.0791ZM21.0791 11.2361V13.5408H21.7041C22.124 13.5408 22.4398 13.4447 22.6514 13.2527C22.863 13.0574 22.9688 12.766 22.9688 12.3787C22.9688 11.9945 22.863 11.7081 22.6514 11.5193C22.443 11.3305 22.1273 11.2361 21.7041 11.2361H21.0791ZM30.5664 11.3093H28.5693V17.032H26.9971V11.3093H25.0098V10.03H30.5664V11.3093ZM34.0234 17.1541C33.0208 17.1541 32.2038 16.8285 31.5723 16.1775C30.9408 15.5232 30.625 14.672 30.625 13.6238C30.625 12.517 30.9456 11.6218 31.5869 10.9382C32.2282 10.2546 33.0778 9.91284 34.1357 9.91284C35.1351 9.91284 35.9424 10.24 36.5576 10.8943C37.1761 11.5486 37.4854 12.4112 37.4854 13.4822C37.4854 14.5824 37.1647 15.4695 36.5234 16.1433C35.8854 16.8171 35.0521 17.1541 34.0234 17.1541ZM34.0527 15.8015C34.5996 15.8015 35.0326 15.6046 35.3516 15.2107C35.6738 14.8168 35.835 14.2699 35.835 13.5701C35.835 12.8409 35.6787 12.2745 35.3662 11.8708C35.057 11.4639 34.6322 11.2605 34.0918 11.2605C33.5352 11.2605 33.0924 11.4688 32.7637 11.8855C32.4382 12.3022 32.2754 12.8539 32.2754 13.5408C32.2754 14.2374 32.4382 14.7891 32.7637 15.196C33.0924 15.5997 33.5221 15.8015 34.0527 15.8015ZM44.7217 17.032H43.1494V14.1755H40.2393V17.032H38.6719V10.03H40.2393V12.8279H43.1494V10.03H44.7217V17.032ZM49.3066 17.1541C48.304 17.1541 47.487 16.8285 46.8555 16.1775C46.224 15.5232 45.9082 14.672 45.9082 13.6238C45.9082 12.517 46.2288 11.6218 46.8701 10.9382C47.5114 10.2546 48.361 9.91284 49.4189 9.91284C50.4183 9.91284 51.2256 10.24 51.8408 10.8943C52.4593 11.5486 52.7686 12.4112 52.7686 13.4822C52.7686 14.5824 52.4479 15.4695 51.8066 16.1433C51.1686 16.8171 50.3353 17.1541 49.3066 17.1541ZM49.3359 15.8015C49.8828 15.8015 50.3158 15.6046 50.6348 15.2107C50.957 14.8168 51.1182 14.2699 51.1182 13.5701C51.1182 12.8409 50.9619 12.2745 50.6494 11.8708C50.3402 11.4639 49.9154 11.2605 49.375 11.2605C48.8184 11.2605 48.3757 11.4688 48.0469 11.8855C47.7214 12.3022 47.5586 12.8539 47.5586 13.5408C47.5586 14.2374 47.7214 14.7891 48.0469 15.196C48.3757 15.5997 48.8053 15.8015 49.3359 15.8015ZM61.9238 17.032H60.376V12.8376C60.376 12.613 60.3809 12.3754 60.3906 12.1248C60.4004 11.8741 60.415 11.6121 60.4346 11.3386H60.3955C60.3532 11.5535 60.3141 11.7374 60.2783 11.8904C60.2458 12.0434 60.2116 12.1671 60.1758 12.2615L58.5254 17.032H57.251L55.5713 12.3103C55.5485 12.2452 55.5176 12.1329 55.4785 11.9734C55.4427 11.8106 55.4004 11.599 55.3516 11.3386H55.3076C55.3304 11.6804 55.3467 12.0027 55.3564 12.3054C55.3662 12.6082 55.3711 12.8897 55.3711 13.1501V17.032H53.9551V10.03H56.25L57.6904 14.1902C57.749 14.3432 57.7962 14.4962 57.832 14.6492C57.8711 14.8022 57.9069 14.9568 57.9395 15.113H57.9688C58.0143 14.9373 58.0599 14.7712 58.1055 14.615C58.151 14.4587 58.1982 14.3139 58.2471 14.1804L59.6875 10.03H61.9238V17.032ZM67.7295 17.032H63.5352V10.03H67.5684V11.3093H65.1025V12.8767H67.3975V14.1462H65.1025V15.7576H67.7295V17.032Z" fill="white"/>
</svg>
