<svg width="296" height="72" viewBox="0 0 296 72" fill="none" xmlns="http://www.w3.org/2000/svg">
<path d="M0 0H296V72H0V0Z" fill="#581C87"/>
<path d="M24.2578 41.6328C22.7865 42.2839 21.3607 42.7526 19.9805 43.0391C18.6003 43.3385 17.1094 43.4883 15.5078 43.4883C11.1458 43.4883 7.70833 42.2708 5.19531 39.8359C2.69531 37.388 1.44531 33.8919 1.44531 29.3477C1.44531 25.0898 2.8125 21.5547 5.54688 18.7422C8.28125 15.9297 11.888 14.5234 16.3672 14.5234C17.8646 14.5234 19.1992 14.6276 20.3711 14.8359C21.556 15.0443 22.7865 15.3828 24.0625 15.8516L22.207 20.9492C21.2435 20.5977 20.319 20.3438 19.4336 20.1875C18.5482 20.0312 17.5911 19.9531 16.5625 19.9531C14.2708 19.9531 12.2852 20.7604 10.6055 22.375C8.92578 23.9766 8.08594 26.151 8.08594 28.8984C8.08594 31.737 8.8151 33.957 10.2734 35.5586C11.7448 37.1602 13.7565 37.9609 16.3086 37.9609C16.9727 37.9609 17.8125 37.8568 18.8281 37.6484C19.8568 37.4271 20.918 37.069 22.0117 36.5742L24.2578 41.6328ZM50.918 43H43.7891L40.0586 36.1055C39.4596 34.9857 38.8542 34.1393 38.2422 33.5664C37.6432 32.9935 36.9531 32.668 36.1719 32.5898H34.4727V43H28.1641V14.9922H38.1641C41.5625 14.9922 44.1081 15.6562 45.8008 16.9844C47.5065 18.2995 48.3594 20.2786 48.3594 22.9219C48.3594 24.7839 47.8125 26.3919 46.7188 27.7461C45.625 29.0872 44.1276 30.0768 42.2266 30.7148V30.793C43.0599 31.0534 43.8346 31.6003 44.5508 32.4336C45.2799 33.2669 45.8984 34.1328 46.4062 35.0312L50.918 43ZM34.4727 19.7188V27.8242H37.207C38.5742 27.8242 39.668 27.4141 40.4883 26.5938C41.3086 25.7734 41.7188 24.7578 41.7188 23.5469C41.7188 22.2708 41.3542 21.3138 40.625 20.6758C39.8958 20.0378 38.7956 19.7188 37.3242 19.7188H34.4727ZM74.6094 14.9922L65.4883 33.0391V43H59.1797V33.1562L50.293 14.9922H57.5L62.0117 25.4414C62.0508 25.5456 62.1224 25.7865 62.2266 26.1641C62.3438 26.5417 62.487 27.0625 62.6562 27.7266H62.7344C62.8125 27.2578 62.9036 26.8411 63.0078 26.4766C63.112 26.112 63.2227 25.793 63.3398 25.5195L67.9297 14.9922H74.6094ZM84.1211 33.8203V43H77.8125V14.9922H87.6953C91.224 14.9922 93.8672 15.7539 95.625 17.2773C97.3958 18.8008 98.2812 21.0924 98.2812 24.1523C98.2812 27.043 97.2656 29.3802 95.2344 31.1641C93.2161 32.9349 90.5143 33.8203 87.1289 33.8203H84.1211ZM84.1211 19.8359V29.0352H86.6016C88.2812 29.0352 89.5378 28.651 90.3711 27.8828C91.2174 27.1016 91.6406 25.9362 91.6406 24.3867C91.6406 22.8633 91.2174 21.724 90.3711 20.9688C89.5378 20.2135 88.2812 19.8359 86.6016 19.8359H84.1211ZM122.031 20.1289H114.043V43H107.715V20.1289H99.7656V14.9922H122.031V20.1289ZM135.781 43.4883C131.771 43.4883 128.503 42.1862 125.977 39.582C123.451 36.9648 122.188 33.5599 122.188 29.3672C122.188 24.9401 123.47 21.3594 126.035 18.625C128.6 15.8906 131.999 14.5234 136.23 14.5234C140.228 14.5234 143.457 15.832 145.918 18.4492C148.392 21.0664 149.629 24.5169 149.629 28.8008C149.629 33.2018 148.346 36.75 145.781 39.4453C143.229 42.1406 139.896 43.4883 135.781 43.4883ZM135.898 38.0391C138.073 38.0391 139.798 37.2578 141.074 35.6953C142.35 34.1198 142.988 31.9388 142.988 29.1523C142.988 26.2487 142.37 23.9896 141.133 22.375C139.896 20.7604 138.203 19.9531 136.055 19.9531C133.841 19.9531 132.083 20.7865 130.781 22.4531C129.479 24.1068 128.828 26.3008 128.828 29.0352C128.828 31.8086 129.479 34.0026 130.781 35.6172C132.083 37.2318 133.789 38.0391 135.898 38.0391ZM189.59 43H183.262V31.5938H171.66V43H165.352V14.9922H171.66V26.1641H183.262V14.9922H189.59V43ZM207.852 43.4883C203.841 43.4883 200.573 42.1862 198.047 39.582C195.521 36.9648 194.258 33.5599 194.258 29.3672C194.258 24.9401 195.54 21.3594 198.105 18.625C200.671 15.8906 204.069 14.5234 208.301 14.5234C212.298 14.5234 215.527 15.832 217.988 18.4492C220.462 21.0664 221.699 24.5169 221.699 28.8008C221.699 33.2018 220.417 36.75 217.852 39.4453C215.299 42.1406 211.966 43.4883 207.852 43.4883ZM207.969 38.0391C210.143 38.0391 211.868 37.2578 213.145 35.6953C214.421 34.1198 215.059 31.9388 215.059 29.1523C215.059 26.2487 214.44 23.9896 213.203 22.375C211.966 20.7604 210.273 19.9531 208.125 19.9531C205.911 19.9531 204.154 20.7865 202.852 22.4531C201.549 24.1068 200.898 26.3008 200.898 29.0352C200.898 31.8086 201.549 34.0026 202.852 35.6172C204.154 37.2318 205.859 38.0391 207.969 38.0391ZM258.281 43H252.051V26.2422C252.051 25.3438 252.07 24.3932 252.109 23.3906C252.148 22.388 252.207 21.3398 252.285 20.2461H252.129C251.96 21.1055 251.803 21.8477 251.66 22.4727C251.53 23.0846 251.393 23.5794 251.25 23.957L244.688 43H239.531L232.852 24.1523C232.773 23.8919 232.656 23.4362 232.5 22.7852C232.344 22.1341 232.168 21.2878 231.973 20.2461H231.797C231.888 21.6263 231.953 22.9219 231.992 24.1328C232.031 25.3438 232.051 26.4701 232.051 27.5117V43H226.367V14.9922H235.605L241.328 31.5938C241.562 32.2057 241.751 32.8177 241.895 33.4297C242.051 34.0417 242.194 34.6602 242.324 35.2852H242.441C242.624 34.582 242.806 33.918 242.988 33.293C243.171 32.668 243.359 32.0885 243.555 31.5547L249.277 14.9922H258.281V43ZM281.445 43H264.648V14.9922H280.801V20.1289H270.957V26.3594H280.117V31.4766H270.957V37.8828H281.445V43Z" fill="white"/>
</svg>
