<svg width="68" height="59" viewBox="0 0 68 59" fill="none" xmlns="http://www.w3.org/2000/svg">
<rect width="68" height="59" fill="#581C87"/>
<path d="M5.44 34.144C4.744 34.144 4.132 34.032 3.604 33.808C3.084 33.576 2.648 33.252 2.296 32.836C1.944 32.42 1.68 31.932 1.504 31.372C1.328 30.812 1.24 30.204 1.24 29.548C1.24 28.908 1.336 28.316 1.528 27.772C1.72 27.228 1.996 26.752 2.356 26.344C2.724 25.936 3.168 25.62 3.688 25.396C4.208 25.164 4.796 25.048 5.452 25.048C5.74 25.048 6.06 25.08 6.412 25.144C6.772 25.2 7.12 25.292 7.456 25.42C7.792 25.54 8.072 25.7 8.296 25.9L7.432 27.004C7.288 26.836 7.108 26.692 6.892 26.572C6.676 26.452 6.448 26.364 6.208 26.308C5.968 26.244 5.736 26.212 5.512 26.212C5.048 26.212 4.656 26.308 4.336 26.5C4.016 26.684 3.76 26.936 3.568 27.256C3.376 27.576 3.236 27.932 3.148 28.324C3.068 28.708 3.028 29.104 3.028 29.512C3.028 30.232 3.128 30.852 3.328 31.372C3.536 31.884 3.832 32.28 4.216 32.56C4.6 32.832 5.06 32.968 5.596 32.968C5.932 32.968 6.288 32.924 6.664 32.836C7.04 32.74 7.436 32.584 7.852 32.368L8.344 33.256C8.112 33.408 7.884 33.54 7.66 33.652C7.436 33.764 7.208 33.856 6.976 33.928C6.744 34 6.5 34.052 6.244 34.084C5.996 34.124 5.728 34.144 5.44 34.144ZM10.4443 27.916C10.6203 28.316 10.7163 28.736 10.7323 29.176C10.9323 28.84 11.2123 28.548 11.5723 28.3C11.9323 28.044 12.3123 27.916 12.7123 27.916L12.4723 29.344C12.1203 29.344 11.8043 29.436 11.5243 29.62C11.2523 29.796 10.9923 30.072 10.7443 30.448V34H9.30428V29.644C9.30428 29.492 9.29228 29.316 9.26828 29.116C9.24428 28.908 9.20428 28.708 9.14828 28.516C9.09228 28.324 9.01628 28.164 8.92028 28.036L10.4443 27.916ZM14.442 28.036C14.634 28.588 14.83 29.14 15.03 29.692C15.238 30.236 15.43 30.788 15.606 31.348C15.646 31.484 15.674 31.632 15.69 31.792C15.714 31.952 15.742 32.104 15.774 32.248C15.798 32.104 15.822 31.952 15.846 31.792C15.87 31.632 15.902 31.484 15.942 31.348C16.118 30.788 16.306 30.236 16.506 29.692C16.706 29.14 16.902 28.588 17.094 28.036H18.414L16.29 34.036C16.186 34.332 16.058 34.632 15.906 34.936C15.754 35.248 15.574 35.532 15.366 35.788C15.158 36.052 14.914 36.26 14.634 36.412C14.362 36.572 14.046 36.652 13.686 36.652H13.242V35.632C13.29 35.64 13.338 35.648 13.386 35.656C13.442 35.664 13.498 35.668 13.554 35.668C13.858 35.668 14.106 35.576 14.298 35.392C14.49 35.216 14.646 34.996 14.766 34.732C14.886 34.468 14.982 34.22 15.054 33.988L12.894 28.036H14.442ZM20.3466 27.904C20.3866 28.016 20.4226 28.136 20.4546 28.264C20.4866 28.384 20.5106 28.504 20.5266 28.624C20.7026 28.384 20.9506 28.2 21.2706 28.072C21.5986 27.936 21.9026 27.868 22.1826 27.868C22.6146 27.868 22.9906 27.956 23.3106 28.132C23.6306 28.3 23.8946 28.532 24.1026 28.828C24.3186 29.124 24.4786 29.456 24.5826 29.824C24.6946 30.192 24.7506 30.568 24.7506 30.952C24.7506 31.384 24.6906 31.792 24.5706 32.176C24.4586 32.552 24.2826 32.888 24.0426 33.184C23.8106 33.472 23.5186 33.7 23.1666 33.868C22.8226 34.036 22.4186 34.12 21.9546 34.12C21.7546 34.12 21.5226 34.088 21.2586 34.024C21.0026 33.96 20.7906 33.864 20.6226 33.736C20.6386 33.848 20.6466 33.968 20.6466 34.096C20.6466 34.232 20.6466 34.344 20.6466 34.432V35.944L20.8146 36.604H19.1946V29.716C19.1946 29.564 19.1826 29.388 19.1586 29.188C19.1426 28.98 19.1066 28.776 19.0506 28.576C19.0026 28.376 18.9346 28.212 18.8466 28.084L20.3466 27.904ZM21.7866 28.936C21.5706 28.936 21.3546 28.996 21.1386 29.116C20.9306 29.228 20.7666 29.376 20.6466 29.56V31.516C20.6466 31.78 20.6786 32.036 20.7426 32.284C20.8146 32.524 20.9346 32.72 21.1026 32.872C21.2786 33.024 21.5226 33.1 21.8346 33.1C22.0986 33.1 22.3146 33.032 22.4826 32.896C22.6586 32.76 22.7986 32.584 22.9026 32.368C23.0066 32.152 23.0786 31.924 23.1186 31.684C23.1586 31.444 23.1786 31.22 23.1786 31.012C23.1786 30.796 23.1546 30.568 23.1066 30.328C23.0666 30.088 22.9906 29.864 22.8786 29.656C22.7746 29.44 22.6306 29.268 22.4466 29.14C22.2706 29.004 22.0506 28.936 21.7866 28.936ZM27.7466 26.296C27.6906 26.576 27.6426 26.864 27.6026 27.16C27.5626 27.456 27.5386 27.748 27.5306 28.036H28.9826L28.7546 28.984H27.5306V32.284C27.5306 32.372 27.5386 32.48 27.5546 32.608C27.5706 32.736 27.6146 32.848 27.6866 32.944C27.7586 33.04 27.8746 33.088 28.0346 33.088C28.1706 33.088 28.3026 33.076 28.4306 33.052C28.5586 33.028 28.6866 33 28.8146 32.968L28.9826 33.868C28.7746 33.932 28.5386 33.988 28.2746 34.036C28.0186 34.092 27.7826 34.12 27.5666 34.12C27.0546 34.12 26.6746 34 26.4266 33.76C26.1866 33.52 26.0666 33.136 26.0666 32.608V28.984H25.0826V28.192C25.3306 28.184 25.5466 28.124 25.7306 28.012C25.9146 27.892 26.0706 27.74 26.1986 27.556C26.3346 27.364 26.4426 27.16 26.5226 26.944C26.6106 26.72 26.6786 26.504 26.7266 26.296H27.7466ZM32.1644 34.144C31.5644 34.144 31.0484 34.008 30.6164 33.736C30.1924 33.456 29.8644 33.084 29.6324 32.62C29.4084 32.148 29.2964 31.624 29.2964 31.048C29.2964 30.616 29.3644 30.212 29.5004 29.836C29.6364 29.452 29.8324 29.116 30.0884 28.828C30.3524 28.532 30.6644 28.3 31.0244 28.132C31.3844 27.964 31.7884 27.88 32.2364 27.88C32.8444 27.88 33.3604 28.02 33.7844 28.3C34.2084 28.572 34.5324 28.944 34.7564 29.416C34.9884 29.88 35.1044 30.4 35.1044 30.976C35.1044 31.408 35.0364 31.816 34.9004 32.2C34.7644 32.576 34.5684 32.912 34.3124 33.208C34.0564 33.496 33.7484 33.724 33.3884 33.892C33.0284 34.06 32.6204 34.144 32.1644 34.144ZM32.1764 33.184C32.4564 33.184 32.6844 33.116 32.8604 32.98C33.0364 32.836 33.1724 32.656 33.2684 32.44C33.3644 32.216 33.4284 31.98 33.4604 31.732C33.5004 31.476 33.5204 31.24 33.5204 31.024C33.5204 30.8 33.5044 30.564 33.4724 30.316C33.4484 30.06 33.3924 29.824 33.3044 29.608C33.2164 29.384 33.0844 29.204 32.9084 29.068C32.7404 28.932 32.5124 28.864 32.2244 28.864C31.9524 28.864 31.7284 28.936 31.5524 29.08C31.3764 29.224 31.2404 29.408 31.1444 29.632C31.0484 29.856 30.9804 30.092 30.9404 30.34C30.9004 30.588 30.8804 30.816 30.8804 31.024C30.8804 31.24 30.8964 31.472 30.9284 31.72C30.9604 31.968 31.0204 32.204 31.1084 32.428C31.1964 32.652 31.3244 32.836 31.4924 32.98C31.6684 33.116 31.8964 33.184 32.1764 33.184ZM41.562 30.076H37.878V34H36.222V25.948C36.222 25.94 36.206 25.88 36.174 25.768C36.15 25.656 36.126 25.54 36.102 25.42C36.078 25.3 36.062 25.232 36.054 25.216H37.878V28.888H41.562V25.216H43.218V34H41.562V30.076ZM47.1644 34.144C46.5644 34.144 46.0484 34.008 45.6164 33.736C45.1924 33.456 44.8644 33.084 44.6324 32.62C44.4084 32.148 44.2964 31.624 44.2964 31.048C44.2964 30.616 44.3644 30.212 44.5004 29.836C44.6364 29.452 44.8324 29.116 45.0884 28.828C45.3524 28.532 45.6644 28.3 46.0244 28.132C46.3844 27.964 46.7884 27.88 47.2364 27.88C47.8444 27.88 48.3604 28.02 48.7844 28.3C49.2084 28.572 49.5324 28.944 49.7564 29.416C49.9884 29.88 50.1044 30.4 50.1044 30.976C50.1044 31.408 50.0364 31.816 49.9004 32.2C49.7644 32.576 49.5684 32.912 49.3124 33.208C49.0564 33.496 48.7484 33.724 48.3884 33.892C48.0284 34.06 47.6204 34.144 47.1644 34.144ZM47.1764 33.184C47.4564 33.184 47.6844 33.116 47.8604 32.98C48.0364 32.836 48.1724 32.656 48.2684 32.44C48.3644 32.216 48.4284 31.98 48.4604 31.732C48.5004 31.476 48.5204 31.24 48.5204 31.024C48.5204 30.8 48.5044 30.564 48.4724 30.316C48.4484 30.06 48.3924 29.824 48.3044 29.608C48.2164 29.384 48.0844 29.204 47.9084 29.068C47.7404 28.932 47.5124 28.864 47.2244 28.864C46.9524 28.864 46.7284 28.936 46.5524 29.08C46.3764 29.224 46.2404 29.408 46.1444 29.632C46.0484 29.856 45.9804 30.092 45.9404 30.34C45.9004 30.588 45.8804 30.816 45.8804 31.024C45.8804 31.24 45.8964 31.472 45.9284 31.72C45.9604 31.968 46.0204 32.204 46.1084 32.428C46.1964 32.652 46.3244 32.836 46.4924 32.98C46.6684 33.116 46.8964 33.184 47.1764 33.184ZM52.458 27.904C52.514 28.024 52.558 28.152 52.59 28.288C52.622 28.416 52.646 28.544 52.662 28.672C52.846 28.512 53.03 28.372 53.214 28.252C53.398 28.132 53.594 28.04 53.802 27.976C54.01 27.912 54.242 27.88 54.498 27.88C54.826 27.88 55.122 27.948 55.386 28.084C55.658 28.22 55.858 28.444 55.986 28.756C56.17 28.572 56.362 28.416 56.562 28.288C56.762 28.16 56.974 28.06 57.198 27.988C57.43 27.916 57.674 27.88 57.93 27.88C58.37 27.88 58.71 27.972 58.95 28.156C59.198 28.332 59.37 28.576 59.466 28.888C59.562 29.192 59.61 29.54 59.61 29.932V34H58.17V30.016C58.17 29.872 58.158 29.74 58.134 29.62C58.118 29.492 58.082 29.384 58.026 29.296C57.97 29.2 57.89 29.128 57.786 29.08C57.682 29.032 57.546 29.008 57.378 29.008C57.178 29.008 56.962 29.084 56.73 29.236C56.498 29.38 56.314 29.52 56.178 29.656V34H54.726V29.98C54.726 29.852 54.714 29.732 54.69 29.62C54.674 29.5 54.638 29.396 54.582 29.308C54.526 29.212 54.446 29.14 54.342 29.092C54.246 29.036 54.122 29.008 53.97 29.008C53.834 29.008 53.69 29.044 53.538 29.116C53.386 29.18 53.242 29.264 53.106 29.368C52.97 29.464 52.854 29.564 52.758 29.668V34H51.318V29.728C51.318 29.584 51.306 29.408 51.282 29.2C51.266 28.984 51.23 28.772 51.174 28.564C51.118 28.356 51.042 28.196 50.946 28.084L52.458 27.904ZM63.5472 27.868C64.0992 27.868 64.5512 27.988 64.9032 28.228C65.2632 28.468 65.5272 28.78 65.6952 29.164C65.8712 29.54 65.9592 29.944 65.9592 30.376C65.9592 30.504 65.9512 30.64 65.9352 30.784C65.9192 30.92 65.8912 31.056 65.8512 31.192H62.2032C62.2032 31.832 62.3552 32.324 62.6592 32.668C62.9632 33.004 63.3592 33.172 63.8472 33.172C64.0792 33.172 64.3272 33.132 64.5912 33.052C64.8632 32.972 65.1432 32.848 65.4312 32.68L65.8152 33.496C65.5432 33.712 65.1992 33.872 64.7832 33.976C64.3752 34.08 64.0072 34.132 63.6792 34.132C63.2152 34.132 62.7952 34.06 62.4192 33.916C62.0512 33.772 61.7352 33.564 61.4712 33.292C61.2152 33.02 61.0192 32.696 60.8832 32.32C60.7472 31.944 60.6792 31.524 60.6792 31.06C60.6792 30.636 60.7432 30.236 60.8712 29.86C60.9992 29.476 61.1872 29.136 61.4352 28.84C61.6832 28.536 61.9832 28.3 62.3352 28.132C62.6952 27.956 63.0992 27.868 63.5472 27.868ZM63.4872 28.852C63.2232 28.852 62.9992 28.924 62.8152 29.068C62.6392 29.212 62.5032 29.392 62.4072 29.608C62.3112 29.824 62.2552 30.036 62.2392 30.244H64.4592C64.4992 30.012 64.4872 29.792 64.4232 29.584C64.3592 29.368 64.2472 29.192 64.0872 29.056C63.9272 28.92 63.7272 28.852 63.4872 28.852Z" fill="white"/>
</svg>
